<?xml version="1.0" encoding="utf-8"?>
<!DOCTYPE svg PUBLIC "-//W3C//DTD SVG 1.1//EN" "http://www.w3.org/Graphics/SVG/1.1/DTD/svg11.dtd">
<svg version="1.1" id="Layer_1" xmlns="http://www.w3.org/2000/svg" xmlns:xlink="http://www.w3.org/1999/xlink" x="0px" y="0px"
width="1147px" height="1147px" viewBox="0 0 1147 1147" enable-background="new 0 0 1147 1147" xml:space="preserve">
<rect x="0" y="0" width="1147" height="1147" fill="rgb(255,255,255)" /><g transform="translate(62,62)"><g><defs>
    <linearGradient gradientTransform="rotate(90)" id="grad">
    <stop offset="5%" stop-color="rgb(221,73,61)" />
    <stop offset="95%" stop-color="rgb(195,59,45)" />
    </linearGradient>
<mask id="gmask"><g>
<g transform="translate(248,0) scale(0.31,0.31)"><g transform="" style="fill: rgb(255, 255, 255);">
<g>
	<path d="M40.625,0H100v100H40.625L0,50L40.625,0z"/>
</g>
</g></g><g transform="translate(279,0) scale(0.31,0.31)"><g transform="" style="fill: rgb(255, 255, 255);">
<rect width="100" height="100"/>
</g></g><g transform="translate(372,0) scale(0.31,0.31)"><g transform="" style="fill: rgb(255, 255, 255);">
<g>
	<path d="M100,40.625V100H0V40.625L50,0L100,40.625z"/>
</g>
</g></g><g transform="translate(434,0) scale(0.31,0.31)"><g transform="" style="fill: rgb(255, 255, 255);">
<g>
	<path d="M40.625,0H100v100H40.625L0,50L40.625,0z"/>
</g>
</g></g><g transform="translate(465,0) scale(0.31,0.31)"><g transform="" style="fill: rgb(255, 255, 255);">
<rect width="100" height="100"/>
</g></g><g transform="translate(496,0) scale(0.31,0.31)"><g transform="" style="fill: rgb(255, 255, 255);">
<g>
	<path d="M59.375,0H0v100h59.375L100,50L59.375,0z"/>
</g>
</g></g><g transform="translate(558,0) scale(0.31,0.31)"><g transform="" style="fill: rgb(255, 255, 255);">
<rect width="100" height="100"/>
</g></g><g transform="translate(620,0) scale(0.31,0.31)"><g transform="" style="fill: rgb(255, 255, 255);">
<rect width="100" height="100"/>
</g></g><g transform="translate(744,0) scale(0.31,0.31)"><g transform="" style="fill: rgb(255, 255, 255);">
<rect width="100" height="100"/>
</g></g><g transform="translate(279,31) scale(0.31,0.31)"><g transform="" style="fill: rgb(255, 255, 255);">
<rect width="100" height="100"/>
</g></g><g transform="translate(310,31) scale(0.31,0.31)"><g transform="" style="fill: rgb(255, 255, 255);">
<g>
	<path d="M59.375,0H0v100h59.375L100,50L59.375,0z"/>
</g>
</g></g><g transform="translate(372,31) scale(0.31,0.31)"><g transform="" style="fill: rgb(255, 255, 255);">
<rect width="100" height="100"/>
</g></g><g transform="translate(403,31) scale(0.31,0.31)"><g transform="" style="fill: rgb(255, 255, 255);">
<rect width="100" height="100"/>
</g></g><g transform="translate(527,31) scale(0.31,0.31)"><g transform="" style="fill: rgb(255, 255, 255);">
<g>
	<path d="M100,40.625V100H0V40.625L50,0L100,40.625z"/>
</g>
</g></g><g transform="translate(248,62) scale(0.31,0.31)"><g transform="" style="fill: rgb(255, 255, 255);">
<rect width="100" height="100"/>
</g></g><g transform="translate(403,62) scale(0.31,0.31)"><g transform="" style="fill: rgb(255, 255, 255);">
<rect width="100" height="100"/>
</g></g><g transform="translate(434,62) scale(0.31,0.31)"><g transform="" style="fill: rgb(255, 255, 255);">
<g>
	<path d="M59.375,0H0v100h59.375L100,50L59.375,0z"/>
</g>
</g></g><g transform="translate(527,62) scale(0.31,0.31)"><g transform="" style="fill: rgb(255, 255, 255);">
<rect width="100" height="100"/>
</g></g><g transform="translate(558,62) scale(0.31,0.31)"><g transform="" style="fill: rgb(255, 255, 255);">
<rect width="100" height="100"/>
</g></g><g transform="translate(651,62) scale(0.31,0.31)"><g transform="" style="fill: rgb(255, 255, 255);">
<rect width="100" height="100"/>
</g></g><g transform="translate(682,62) scale(0.31,0.31)"><g transform="" style="fill: rgb(255, 255, 255);">
<rect width="100" height="100"/>
</g></g><g transform="translate(713,62) scale(0.31,0.31)"><g transform="" style="fill: rgb(255, 255, 255);">
<rect width="100" height="100"/>
</g></g><g transform="translate(372,93) scale(0.31,0.31)"><g transform="" style="fill: rgb(255, 255, 255);">
<rect width="100" height="100"/>
</g></g><g transform="translate(465,93) scale(0.31,0.31)"><g transform="" style="fill: rgb(255, 255, 255);">
<rect width="100" height="100"/>
</g></g><g transform="translate(558,93) scale(0.31,0.31)"><g transform="" style="fill: rgb(255, 255, 255);">
<rect width="100" height="100"/>
</g></g><g transform="translate(589,93) scale(0.31,0.31)"><g transform="" style="fill: rgb(255, 255, 255);">
<rect width="100" height="100"/>
</g></g><g transform="translate(651,93) scale(0.31,0.31)"><g transform="" style="fill: rgb(255, 255, 255);">
<g>
	<path d="M100,59.375V0H0v59.375L50,100L100,59.375z"/>
</g>
</g></g><g transform="translate(713,93) scale(0.31,0.31)"><g transform="" style="fill: rgb(255, 255, 255);">
<g>
	<path d="M100,59.375V0H0v59.375L50,100L100,59.375z"/>
</g>
</g></g><g transform="translate(248,124) scale(0.31,0.31)"><g transform="" style="fill: rgb(255, 255, 255);">
<g>
	<path d="M40.625,0H100v100H40.625L0,50L40.625,0z"/>
</g>
</g></g><g transform="translate(279,124) scale(0.31,0.31)"><g transform="" style="fill: rgb(255, 255, 255);">
<rect width="100" height="100"/>
</g></g><g transform="translate(310,124) scale(0.31,0.31)"><g transform="" style="fill: rgb(255, 255, 255);">
<g>
	<path d="M59.375,0H0v100h59.375L100,50L59.375,0z"/>
</g>
</g></g><g transform="translate(403,124) scale(0.31,0.31)"><g transform="" style="fill: rgb(255, 255, 255);">
<rect width="100" height="100"/>
</g></g><g transform="translate(496,124) scale(0.31,0.31)"><g transform="" style="fill: rgb(255, 255, 255);">
<g>
	<path d="M40.625,0H100v100H40.625L0,50L40.625,0z"/>
</g>
</g></g><g transform="translate(527,124) scale(0.31,0.31)"><g transform="" style="fill: rgb(255, 255, 255);">
<rect width="100" height="100"/>
</g></g><g transform="translate(589,124) scale(0.31,0.31)"><g transform="" style="fill: rgb(255, 255, 255);">
<g>
	<path d="M100,59.375V0H0v59.375L50,100L100,59.375z"/>
</g>
</g></g><g transform="translate(744,124) scale(0.31,0.31)"><g transform="" style="fill: rgb(255, 255, 255);">
<rect width="100" height="100"/>
</g></g><g transform="translate(341,155) scale(0.31,0.31)"><g transform="" style="fill: rgb(255, 255, 255);">
<g>
	<path d="M40.625,0H100v100H40.625L0,50L40.625,0z"/>
</g>
</g></g><g transform="translate(372,155) scale(0.31,0.31)"><g transform="" style="fill: rgb(255, 255, 255);">
<rect width="100" height="100"/>
</g></g><g transform="translate(465,155) scale(0.31,0.31)"><g transform="" style="fill: rgb(255, 255, 255);">
<rect width="100" height="100"/>
</g></g><g transform="translate(527,155) scale(0.31,0.31)"><g transform="" style="fill: rgb(255, 255, 255);">
<rect width="100" height="100"/>
</g></g><g transform="translate(558,155) scale(0.31,0.31)"><g transform="" style="fill: rgb(255, 255, 255);">
<rect width="100" height="100"/>
</g></g><g transform="translate(620,155) scale(0.31,0.31)"><g transform="" style="fill: rgb(255, 255, 255);">
<g>
	<path d="M100,40.625V100H0V40.625L50,0L100,40.625z"/>
</g>
</g></g><g transform="translate(682,155) scale(0.31,0.31)"><g transform="" style="fill: rgb(255, 255, 255);">
<g>
	<path d="M100,40.625V100H0V40.625L50,0L100,40.625z"/>
</g>
</g></g><g transform="translate(248,186) scale(0.31,0.31)"><g transform="" style="fill: rgb(255, 255, 255);">
<g>
	<path d="M100,40.625V100H0V40.625L50,0L100,40.625z"/>
</g>
</g></g><g transform="translate(310,186) scale(0.31,0.31)"><g transform="" style="fill: rgb(255, 255, 255);">
<g>
	<path d="M100,40.625V100H0V40.625L50,0L100,40.625z"/>
</g>
</g></g><g transform="translate(372,186) scale(0.31,0.31)"><g transform="" style="fill: rgb(255, 255, 255);">
<g>
	<path d="M100,59.375V0H0v59.375L50,100L100,59.375z"/>
</g>
</g></g><g transform="translate(434,186) scale(0.31,0.31)"><g transform="" style="fill: rgb(255, 255, 255);">
<rect width="100" height="100"/>
</g></g><g transform="translate(496,186) scale(0.31,0.31)"><g transform="" style="fill: rgb(255, 255, 255);">
<g>
	<path d="M100,40.625V100H0V40.625L50,0L100,40.625z"/>
</g>
</g></g><g transform="translate(558,186) scale(0.31,0.31)"><g transform="" style="fill: rgb(255, 255, 255);">
<rect width="100" height="100"/>
</g></g><g transform="translate(620,186) scale(0.31,0.31)"><g transform="" style="fill: rgb(255, 255, 255);">
<g>
	<path d="M100,59.375V0H0v59.375L50,100L100,59.375z"/>
</g>
</g></g><g transform="translate(682,186) scale(0.31,0.31)"><g transform="" style="fill: rgb(255, 255, 255);">
<g>
	<path d="M100,59.375V0H0v59.375L50,100L100,59.375z"/>
</g>
</g></g><g transform="translate(744,186) scale(0.31,0.31)"><g transform="" style="fill: rgb(255, 255, 255);">
<g>
	<path d="M100,40.625V100H0V40.625L50,0L100,40.625z"/>
</g>
</g></g><g transform="translate(248,217) scale(0.31,0.31)"><g transform="" style="fill: rgb(255, 255, 255);">
<rect width="100" height="100"/>
</g></g><g transform="translate(279,217) scale(0.31,0.31)"><g transform="" style="fill: rgb(255, 255, 255);">
<rect width="100" height="100"/>
</g></g><g transform="translate(310,217) scale(0.31,0.31)"><g transform="" style="fill: rgb(255, 255, 255);">
<rect width="100" height="100"/>
</g></g><g transform="translate(403,217) scale(0.31,0.31)"><g transform="" style="fill: rgb(255, 255, 255);">
<rect width="100" height="100"/>
</g></g><g transform="translate(465,217) scale(0.31,0.31)"><g transform="" style="fill: rgb(255, 255, 255);">
<g>
	<path d="M40.625,0H100v100H40.625L0,50L40.625,0z"/>
</g>
</g></g><g transform="translate(496,217) scale(0.31,0.31)"><g transform="" style="fill: rgb(255, 255, 255);">
<rect width="100" height="100"/>
</g></g><g transform="translate(558,217) scale(0.31,0.31)"><g transform="" style="fill: rgb(255, 255, 255);">
<rect width="100" height="100"/>
</g></g><g transform="translate(744,217) scale(0.31,0.31)"><g transform="" style="fill: rgb(255, 255, 255);">
<rect width="100" height="100"/>
</g></g><g transform="translate(155,248) scale(0.31,0.31)"><g transform="" style="fill: rgb(255, 255, 255);">
<g>
	<path d="M40.625,0H100v100H40.625L0,50L40.625,0z"/>
</g>
</g></g><g transform="translate(186,248) scale(0.31,0.31)"><g transform="" style="fill: rgb(255, 255, 255);">
<g>
	<path d="M59.375,0H0v100h59.375L100,50L59.375,0z"/>
</g>
</g></g><g transform="translate(279,248) scale(0.31,0.31)"><g transform="" style="fill: rgb(255, 255, 255);">
<g>
	<path d="M100,59.375V0H0v59.375L50,100L100,59.375z"/>
</g>
</g></g><g transform="translate(341,248) scale(0.31,0.31)"><g transform="" style="fill: rgb(255, 255, 255);">
<rect width="100" height="100"/>
</g></g><g transform="translate(372,248) scale(0.31,0.31)"><g transform="" style="fill: rgb(255, 255, 255);">
<g>
	<path d="M59.375,0H0v100h59.375L100,50L59.375,0z"/>
</g>
</g></g><g transform="translate(527,248) scale(0.31,0.31)"><g transform="" style="fill: rgb(255, 255, 255);">
<g>
	<path d="M40.625,0H100v100H40.625L0,50L40.625,0z"/>
</g>
</g></g><g transform="translate(558,248) scale(0.31,0.31)"><g transform="" style="fill: rgb(255, 255, 255);">
<rect width="100" height="100"/>
</g></g><g transform="translate(620,248) scale(0.31,0.31)"><g transform="" style="fill: rgb(255, 255, 255);">
<g>
	<path d="M100,40.625V100H0V40.625L50,0L100,40.625z"/>
</g>
</g></g><g transform="translate(744,248) scale(0.31,0.31)"><g transform="" style="fill: rgb(255, 255, 255);">
<g>
	<path d="M100,59.375V0H0v59.375L50,100L100,59.375z"/>
</g>
</g></g><g transform="translate(806,248) scale(0.31,0.31)"><g transform="" style="fill: rgb(255, 255, 255);">
<rect width="100" height="100"/>
</g></g><g transform="translate(868,248) scale(0.31,0.31)"><g transform="" style="fill: rgb(255, 255, 255);">
<g>
	<path d="M100,40.625V100H0V40.625L50,0L100,40.625z"/>
</g>
</g></g><g transform="translate(930,248) scale(0.31,0.31)"><g transform="" style="fill: rgb(255, 255, 255);">
<rect width="100" height="100"/>
</g></g><g transform="translate(992,248) scale(0.31,0.31)"><g transform="" style="fill: rgb(255, 255, 255);">
<rect width="100" height="100"/>
</g></g><g transform="translate(31,279) scale(0.31,0.31)"><g transform="" style="fill: rgb(255, 255, 255);">
<g>
	<path d="M40.625,0H100v100H40.625L0,50L40.625,0z"/>
</g>
</g></g><g transform="translate(62,279) scale(0.31,0.31)"><g transform="" style="fill: rgb(255, 255, 255);">
<g>
	<path d="M59.375,0H0v100h59.375L100,50L59.375,0z"/>
</g>
</g></g><g transform="translate(124,279) scale(0.31,0.31)"><g transform="" style="fill: rgb(255, 255, 255);">
<g>
	<path d="M100,40.625V100H0V40.625L50,0L100,40.625z"/>
</g>
</g></g><g transform="translate(217,279) scale(0.31,0.31)"><g transform="" style="fill: rgb(255, 255, 255);">
<rect width="100" height="100"/>
</g></g><g transform="translate(310,279) scale(0.31,0.31)"><g transform="" style="fill: rgb(255, 255, 255);">
<rect width="100" height="100"/>
</g></g><g transform="translate(341,279) scale(0.31,0.31)"><g transform="" style="fill: rgb(255, 255, 255);">
<rect width="100" height="100"/>
</g></g><g transform="translate(465,279) scale(0.31,0.31)"><g transform="" style="fill: rgb(255, 255, 255);">
<rect width="100" height="100"/>
</g></g><g transform="translate(558,279) scale(0.31,0.31)"><g transform="" style="fill: rgb(255, 255, 255);">
<rect width="100" height="100"/>
</g></g><g transform="translate(589,279) scale(0.31,0.31)"><g transform="" style="fill: rgb(255, 255, 255);">
<rect width="100" height="100"/>
</g></g><g transform="translate(620,279) scale(0.31,0.31)"><g transform="" style="fill: rgb(255, 255, 255);">
<rect width="100" height="100"/>
</g></g><g transform="translate(651,279) scale(0.31,0.31)"><g transform="" style="fill: rgb(255, 255, 255);">
<rect width="100" height="100"/>
</g></g><g transform="translate(682,279) scale(0.31,0.31)"><g transform="" style="fill: rgb(255, 255, 255);">
<rect width="100" height="100"/>
</g></g><g transform="translate(713,279) scale(0.31,0.31)"><g transform="" style="fill: rgb(255, 255, 255);">
<g>
	<path d="M59.375,0H0v100h59.375L100,50L59.375,0z"/>
</g>
</g></g><g transform="translate(837,279) scale(0.31,0.31)"><g transform="" style="fill: rgb(255, 255, 255);">
<g>
	<path d="M40.625,0H100v100H40.625L0,50L40.625,0z"/>
</g>
</g></g><g transform="translate(868,279) scale(0.31,0.31)"><g transform="" style="fill: rgb(255, 255, 255);">
<rect width="100" height="100"/>
</g></g><g transform="translate(899,279) scale(0.31,0.31)"><g transform="" style="fill: rgb(255, 255, 255);">
<rect width="100" height="100"/>
</g></g><g transform="translate(124,310) scale(0.31,0.31)"><g transform="" style="fill: rgb(255, 255, 255);">
<rect width="100" height="100"/>
</g></g><g transform="translate(155,310) scale(0.31,0.31)"><g transform="" style="fill: rgb(255, 255, 255);">
<rect width="100" height="100"/>
</g></g><g transform="translate(186,310) scale(0.31,0.31)"><g transform="" style="fill: rgb(255, 255, 255);">
<g>
	<path d="M59.375,0H0v100h59.375L100,50L59.375,0z"/>
</g>
</g></g><g transform="translate(248,310) scale(0.31,0.31)"><g transform="" style="fill: rgb(255, 255, 255);">
<g>
	<path d="M40.625,0H100v100H40.625L0,50L40.625,0z"/>
</g>
</g></g><g transform="translate(279,310) scale(0.31,0.31)"><g transform="" style="fill: rgb(255, 255, 255);">
<rect width="100" height="100"/>
</g></g><g transform="translate(310,310) scale(0.31,0.31)"><g transform="" style="fill: rgb(255, 255, 255);">
<rect width="100" height="100"/>
</g></g><g transform="translate(372,310) scale(0.31,0.31)"><g transform="" style="fill: rgb(255, 255, 255);">
<g>
	<path d="M40.625,0H100v100H40.625L0,50L40.625,0z"/>
</g>
</g></g><g transform="translate(403,310) scale(0.31,0.31)"><g transform="" style="fill: rgb(255, 255, 255);">
<g>
	<path d="M59.375,0H0v100h59.375L100,50L59.375,0z"/>
</g>
</g></g><g transform="translate(558,310) scale(0.31,0.31)"><g transform="" style="fill: rgb(255, 255, 255);">
<rect width="100" height="100"/>
</g></g><g transform="translate(589,310) scale(0.31,0.31)"><g transform="" style="fill: rgb(255, 255, 255);">
<rect width="100" height="100"/>
</g></g><g transform="translate(682,310) scale(0.31,0.31)"><g transform="" style="fill: rgb(255, 255, 255);">
<g>
	<path d="M100,59.375V0H0v59.375L50,100L100,59.375z"/>
</g>
</g></g><g transform="translate(806,310) scale(0.31,0.31)"><g transform="" style="fill: rgb(255, 255, 255);">
<rect width="100" height="100"/>
</g></g><g transform="translate(899,310) scale(0.31,0.31)"><g transform="" style="fill: rgb(255, 255, 255);">
<rect width="100" height="100"/>
</g></g><g transform="translate(930,310) scale(0.31,0.31)"><g transform="" style="fill: rgb(255, 255, 255);">
<rect width="100" height="100"/>
</g></g><g transform="translate(961,310) scale(0.31,0.31)"><g transform="" style="fill: rgb(255, 255, 255);">
<rect width="100" height="100"/>
</g></g><g transform="translate(62,341) scale(0.31,0.31)"><g transform="" style="fill: rgb(255, 255, 255);">
<rect width="100" height="100"/>
</g></g><g transform="translate(124,341) scale(0.31,0.31)"><g transform="" style="fill: rgb(255, 255, 255);">
<g>
	<path d="M100,59.375V0H0v59.375L50,100L100,59.375z"/>
</g>
</g></g><g transform="translate(279,341) scale(0.31,0.31)"><g transform="" style="fill: rgb(255, 255, 255);">
<rect width="100" height="100"/>
</g></g><g transform="translate(310,341) scale(0.31,0.31)"><g transform="" style="fill: rgb(255, 255, 255);">
<rect width="100" height="100"/>
</g></g><g transform="translate(744,341) scale(0.31,0.31)"><g transform="" style="fill: rgb(255, 255, 255);">
<g>
	<path d="M40.625,0H100v100H40.625L0,50L40.625,0z"/>
</g>
</g></g><g transform="translate(775,341) scale(0.31,0.31)"><g transform="" style="fill: rgb(255, 255, 255);">
<g>
	<path d="M59.375,0H0v100h59.375L100,50L59.375,0z"/>
</g>
</g></g><g transform="translate(868,341) scale(0.31,0.31)"><g transform="" style="fill: rgb(255, 255, 255);">
<rect width="100" height="100"/>
</g></g><g transform="translate(899,341) scale(0.31,0.31)"><g transform="" style="fill: rgb(255, 255, 255);">
<rect width="100" height="100"/>
</g></g><g transform="translate(930,341) scale(0.31,0.31)"><g transform="" style="fill: rgb(255, 255, 255);">
<rect width="100" height="100"/>
</g></g><g transform="translate(961,341) scale(0.31,0.31)"><g transform="" style="fill: rgb(255, 255, 255);">
<rect width="100" height="100"/>
</g></g><g transform="translate(992,341) scale(0.31,0.31)"><g transform="" style="fill: rgb(255, 255, 255);">
<g>
	<path d="M59.375,0H0v100h59.375L100,50L59.375,0z"/>
</g>
</g></g><g transform="translate(0,372) scale(0.31,0.31)"><g transform="" style="fill: rgb(255, 255, 255);">
<rect width="100" height="100"/>
</g></g><g transform="translate(31,372) scale(0.31,0.31)"><g transform="" style="fill: rgb(255, 255, 255);">
<g>
	<path d="M59.375,0H0v100h59.375L100,50L59.375,0z"/>
</g>
</g></g><g transform="translate(93,372) scale(0.31,0.31)"><g transform="" style="fill: rgb(255, 255, 255);">
<g>
	<path d="M100,40.625V100H0V40.625L50,0L100,40.625z"/>
</g>
</g></g><g transform="translate(186,372) scale(0.31,0.31)"><g transform="" style="fill: rgb(255, 255, 255);">
<rect width="100" height="100"/>
</g></g><g transform="translate(248,372) scale(0.31,0.31)"><g transform="" style="fill: rgb(255, 255, 255);">
<rect width="100" height="100"/>
</g></g><g transform="translate(806,372) scale(0.31,0.31)"><g transform="" style="fill: rgb(255, 255, 255);">
<rect width="100" height="100"/>
</g></g><g transform="translate(837,372) scale(0.31,0.31)"><g transform="" style="fill: rgb(255, 255, 255);">
<rect width="100" height="100"/>
</g></g><g transform="translate(868,372) scale(0.31,0.31)"><g transform="" style="fill: rgb(255, 255, 255);">
<rect width="100" height="100"/>
</g></g><g transform="translate(899,372) scale(0.31,0.31)"><g transform="" style="fill: rgb(255, 255, 255);">
<rect width="100" height="100"/>
</g></g><g transform="translate(930,372) scale(0.31,0.31)"><g transform="" style="fill: rgb(255, 255, 255);">
<rect width="100" height="100"/>
</g></g><g transform="translate(961,372) scale(0.31,0.31)"><g transform="" style="fill: rgb(255, 255, 255);">
<rect width="100" height="100"/>
</g></g><g transform="translate(0,403) scale(0.31,0.31)"><g transform="" style="fill: rgb(255, 255, 255);">
<rect width="100" height="100"/>
</g></g><g transform="translate(93,403) scale(0.31,0.31)"><g transform="" style="fill: rgb(255, 255, 255);">
<rect width="100" height="100"/>
</g></g><g transform="translate(124,403) scale(0.31,0.31)"><g transform="" style="fill: rgb(255, 255, 255);">
<rect width="100" height="100"/>
</g></g><g transform="translate(155,403) scale(0.31,0.31)"><g transform="" style="fill: rgb(255, 255, 255);">
<g>
	<path d="M59.375,0H0v100h59.375L100,50L59.375,0z"/>
</g>
</g></g><g transform="translate(310,403) scale(0.31,0.31)"><g transform="" style="fill: rgb(255, 255, 255);">
<g>
	<path d="M100,40.625V100H0V40.625L50,0L100,40.625z"/>
</g>
</g></g><g transform="translate(713,403) scale(0.31,0.31)"><g transform="" style="fill: rgb(255, 255, 255);">
<rect width="100" height="100"/>
</g></g><g transform="translate(806,403) scale(0.31,0.31)"><g transform="" style="fill: rgb(255, 255, 255);">
<rect width="100" height="100"/>
</g></g><g transform="translate(837,403) scale(0.31,0.31)"><g transform="" style="fill: rgb(255, 255, 255);">
<rect width="100" height="100"/>
</g></g><g transform="translate(868,403) scale(0.31,0.31)"><g transform="" style="fill: rgb(255, 255, 255);">
<rect width="100" height="100"/>
</g></g><g transform="translate(899,403) scale(0.31,0.31)"><g transform="" style="fill: rgb(255, 255, 255);">
<rect width="100" height="100"/>
</g></g><g transform="translate(992,403) scale(0.31,0.31)"><g transform="" style="fill: rgb(255, 255, 255);">
<rect width="100" height="100"/>
</g></g><g transform="translate(0,434) scale(0.31,0.31)"><g transform="" style="fill: rgb(255, 255, 255);">
<g>
	<path d="M100,59.375V0H0v59.375L50,100L100,59.375z"/>
</g>
</g></g><g transform="translate(186,434) scale(0.31,0.31)"><g transform="" style="fill: rgb(255, 255, 255);">
<g>
	<path d="M40.625,0H100v100H40.625L0,50L40.625,0z"/>
</g>
</g></g><g transform="translate(217,434) scale(0.31,0.31)"><g transform="" style="fill: rgb(255, 255, 255);">
<rect width="100" height="100"/>
</g></g><g transform="translate(248,434) scale(0.31,0.31)"><g transform="" style="fill: rgb(255, 255, 255);">
<rect width="100" height="100"/>
</g></g><g transform="translate(279,434) scale(0.31,0.31)"><g transform="" style="fill: rgb(255, 255, 255);">
<rect width="100" height="100"/>
</g></g><g transform="translate(310,434) scale(0.31,0.31)"><g transform="" style="fill: rgb(255, 255, 255);">
<rect width="100" height="100"/>
</g></g><g transform="translate(775,434) scale(0.31,0.31)"><g transform="" style="fill: rgb(255, 255, 255);">
<rect width="100" height="100"/>
</g></g><g transform="translate(806,434) scale(0.31,0.31)"><g transform="" style="fill: rgb(255, 255, 255);">
<rect width="100" height="100"/>
</g></g><g transform="translate(837,434) scale(0.31,0.31)"><g transform="" style="fill: rgb(255, 255, 255);">
<rect width="100" height="100"/>
</g></g><g transform="translate(868,434) scale(0.31,0.31)"><g transform="" style="fill: rgb(255, 255, 255);">
<rect width="100" height="100"/>
</g></g><g transform="translate(899,434) scale(0.31,0.31)"><g transform="" style="fill: rgb(255, 255, 255);">
<rect width="100" height="100"/>
</g></g><g transform="translate(961,434) scale(0.31,0.31)"><g transform="" style="fill: rgb(255, 255, 255);">
<rect width="100" height="100"/>
</g></g><g transform="translate(31,465) scale(0.31,0.31)"><g transform="" style="fill: rgb(255, 255, 255);">
<g>
	<path d="M100,40.625V100H0V40.625L50,0L100,40.625z"/>
</g>
</g></g><g transform="translate(93,465) scale(0.31,0.31)"><g transform="" style="fill: rgb(255, 255, 255);">
<g>
	<path d="M100,40.625V100H0V40.625L50,0L100,40.625z"/>
</g>
</g></g><g transform="translate(217,465) scale(0.31,0.31)"><g transform="" style="fill: rgb(255, 255, 255);">
<g>
	<path d="M100,59.375V0H0v59.375L50,100L100,59.375z"/>
</g>
</g></g><g transform="translate(279,465) scale(0.31,0.31)"><g transform="" style="fill: rgb(255, 255, 255);">
<rect width="100" height="100"/>
</g></g><g transform="translate(310,465) scale(0.31,0.31)"><g transform="" style="fill: rgb(255, 255, 255);">
<rect width="100" height="100"/>
</g></g><g transform="translate(682,465) scale(0.31,0.31)"><g transform="" style="fill: rgb(255, 255, 255);">
<g>
	<path d="M100,40.625V100H0V40.625L50,0L100,40.625z"/>
</g>
</g></g><g transform="translate(775,465) scale(0.31,0.31)"><g transform="" style="fill: rgb(255, 255, 255);">
<rect width="100" height="100"/>
</g></g><g transform="translate(806,465) scale(0.31,0.31)"><g transform="" style="fill: rgb(255, 255, 255);">
<rect width="100" height="100"/>
</g></g><g transform="translate(837,465) scale(0.31,0.31)"><g transform="" style="fill: rgb(255, 255, 255);">
<rect width="100" height="100"/>
</g></g><g transform="translate(899,465) scale(0.31,0.31)"><g transform="" style="fill: rgb(255, 255, 255);">
<rect width="100" height="100"/>
</g></g><g transform="translate(930,465) scale(0.31,0.31)"><g transform="" style="fill: rgb(255, 255, 255);">
<g>
	<path d="M59.375,0H0v100h59.375L100,50L59.375,0z"/>
</g>
</g></g><g transform="translate(992,465) scale(0.31,0.31)"><g transform="" style="fill: rgb(255, 255, 255);">
<g>
	<path d="M100,40.625V100H0V40.625L50,0L100,40.625z"/>
</g>
</g></g><g transform="translate(0,496) scale(0.31,0.31)"><g transform="" style="fill: rgb(255, 255, 255);">
<rect width="100" height="100"/>
</g></g><g transform="translate(31,496) scale(0.31,0.31)"><g transform="" style="fill: rgb(255, 255, 255);">
<rect width="100" height="100"/>
</g></g><g transform="translate(62,496) scale(0.31,0.31)"><g transform="" style="fill: rgb(255, 255, 255);">
<rect width="100" height="100"/>
</g></g><g transform="translate(93,496) scale(0.31,0.31)"><g transform="" style="fill: rgb(255, 255, 255);">
<rect width="100" height="100"/>
</g></g><g transform="translate(155,496) scale(0.31,0.31)"><g transform="" style="fill: rgb(255, 255, 255);">
<g>
	<path d="M40.625,0H100v100H40.625L0,50L40.625,0z"/>
</g>
</g></g><g transform="translate(186,496) scale(0.31,0.31)"><g transform="" style="fill: rgb(255, 255, 255);">
<g>
	<path d="M59.375,0H0v100h59.375L100,50L59.375,0z"/>
</g>
</g></g><g transform="translate(248,496) scale(0.31,0.31)"><g transform="" style="fill: rgb(255, 255, 255);">
<g>
	<path d="M40.625,0H100v100H40.625L0,50L40.625,0z"/>
</g>
</g></g><g transform="translate(279,496) scale(0.31,0.31)"><g transform="" style="fill: rgb(255, 255, 255);">
<rect width="100" height="100"/>
</g></g><g transform="translate(310,496) scale(0.31,0.31)"><g transform="" style="fill: rgb(255, 255, 255);">
<rect width="100" height="100"/>
</g></g><g transform="translate(682,496) scale(0.31,0.31)"><g transform="" style="fill: rgb(255, 255, 255);">
<rect width="100" height="100"/>
</g></g><g transform="translate(713,496) scale(0.31,0.31)"><g transform="" style="fill: rgb(255, 255, 255);">
<rect width="100" height="100"/>
</g></g><g transform="translate(744,496) scale(0.31,0.31)"><g transform="" style="fill: rgb(255, 255, 255);">
<rect width="100" height="100"/>
</g></g><g transform="translate(775,496) scale(0.31,0.31)"><g transform="" style="fill: rgb(255, 255, 255);">
<rect width="100" height="100"/>
</g></g><g transform="translate(837,496) scale(0.31,0.31)"><g transform="" style="fill: rgb(255, 255, 255);">
<rect width="100" height="100"/>
</g></g><g transform="translate(868,496) scale(0.31,0.31)"><g transform="" style="fill: rgb(255, 255, 255);">
<g>
	<path d="M59.375,0H0v100h59.375L100,50L59.375,0z"/>
</g>
</g></g><g transform="translate(961,496) scale(0.31,0.31)"><g transform="" style="fill: rgb(255, 255, 255);">
<g>
	<path d="M40.625,0H100v100H40.625L0,50L40.625,0z"/>
</g>
</g></g><g transform="translate(992,496) scale(0.31,0.31)"><g transform="" style="fill: rgb(255, 255, 255);">
<rect width="100" height="100"/>
</g></g><g transform="translate(0,527) scale(0.31,0.31)"><g transform="" style="fill: rgb(255, 255, 255);">
<rect width="100" height="100"/>
</g></g><g transform="translate(31,527) scale(0.31,0.31)"><g transform="" style="fill: rgb(255, 255, 255);">
<rect width="100" height="100"/>
</g></g><g transform="translate(93,527) scale(0.31,0.31)"><g transform="" style="fill: rgb(255, 255, 255);">
<rect width="100" height="100"/>
</g></g><g transform="translate(217,527) scale(0.31,0.31)"><g transform="" style="fill: rgb(255, 255, 255);">
<g>
	<path d="M100,40.625V100H0V40.625L50,0L100,40.625z"/>
</g>
</g></g><g transform="translate(310,527) scale(0.31,0.31)"><g transform="" style="fill: rgb(255, 255, 255);">
<rect width="100" height="100"/>
</g></g><g transform="translate(713,527) scale(0.31,0.31)"><g transform="" style="fill: rgb(255, 255, 255);">
<rect width="100" height="100"/>
</g></g><g transform="translate(806,527) scale(0.31,0.31)"><g transform="" style="fill: rgb(255, 255, 255);">
<rect width="100" height="100"/>
</g></g><g transform="translate(837,527) scale(0.31,0.31)"><g transform="" style="fill: rgb(255, 255, 255);">
<rect width="100" height="100"/>
</g></g><g transform="translate(899,527) scale(0.31,0.31)"><g transform="" style="fill: rgb(255, 255, 255);">
<rect width="100" height="100"/>
</g></g><g transform="translate(992,527) scale(0.31,0.31)"><g transform="" style="fill: rgb(255, 255, 255);">
<rect width="100" height="100"/>
</g></g><g transform="translate(93,558) scale(0.31,0.31)"><g transform="" style="fill: rgb(255, 255, 255);">
<rect width="100" height="100"/>
</g></g><g transform="translate(155,558) scale(0.31,0.31)"><g transform="" style="fill: rgb(255, 255, 255);">
<rect width="100" height="100"/>
</g></g><g transform="translate(186,558) scale(0.31,0.31)"><g transform="" style="fill: rgb(255, 255, 255);">
<rect width="100" height="100"/>
</g></g><g transform="translate(217,558) scale(0.31,0.31)"><g transform="" style="fill: rgb(255, 255, 255);">
<rect width="100" height="100"/>
</g></g><g transform="translate(248,558) scale(0.31,0.31)"><g transform="" style="fill: rgb(255, 255, 255);">
<rect width="100" height="100"/>
</g></g><g transform="translate(310,558) scale(0.31,0.31)"><g transform="" style="fill: rgb(255, 255, 255);">
<rect width="100" height="100"/>
</g></g><g transform="translate(682,558) scale(0.31,0.31)"><g transform="" style="fill: rgb(255, 255, 255);">
<rect width="100" height="100"/>
</g></g><g transform="translate(713,558) scale(0.31,0.31)"><g transform="" style="fill: rgb(255, 255, 255);">
<rect width="100" height="100"/>
</g></g><g transform="translate(744,558) scale(0.31,0.31)"><g transform="" style="fill: rgb(255, 255, 255);">
<rect width="100" height="100"/>
</g></g><g transform="translate(775,558) scale(0.31,0.31)"><g transform="" style="fill: rgb(255, 255, 255);">
<rect width="100" height="100"/>
</g></g><g transform="translate(806,558) scale(0.31,0.31)"><g transform="" style="fill: rgb(255, 255, 255);">
<rect width="100" height="100"/>
</g></g><g transform="translate(930,558) scale(0.31,0.31)"><g transform="" style="fill: rgb(255, 255, 255);">
<g>
	<path d="M100,40.625V100H0V40.625L50,0L100,40.625z"/>
</g>
</g></g><g transform="translate(992,558) scale(0.31,0.31)"><g transform="" style="fill: rgb(255, 255, 255);">
<rect width="100" height="100"/>
</g></g><g transform="translate(31,589) scale(0.31,0.31)"><g transform="" style="fill: rgb(255, 255, 255);">
<rect width="100" height="100"/>
</g></g><g transform="translate(93,589) scale(0.31,0.31)"><g transform="" style="fill: rgb(255, 255, 255);">
<rect width="100" height="100"/>
</g></g><g transform="translate(124,589) scale(0.31,0.31)"><g transform="" style="fill: rgb(255, 255, 255);">
<rect width="100" height="100"/>
</g></g><g transform="translate(155,589) scale(0.31,0.31)"><g transform="" style="fill: rgb(255, 255, 255);">
<rect width="100" height="100"/>
</g></g><g transform="translate(248,589) scale(0.31,0.31)"><g transform="" style="fill: rgb(255, 255, 255);">
<rect width="100" height="100"/>
</g></g><g transform="translate(279,589) scale(0.31,0.31)"><g transform="" style="fill: rgb(255, 255, 255);">
<rect width="100" height="100"/>
</g></g><g transform="translate(310,589) scale(0.31,0.31)"><g transform="" style="fill: rgb(255, 255, 255);">
<rect width="100" height="100"/>
</g></g><g transform="translate(682,589) scale(0.31,0.31)"><g transform="" style="fill: rgb(255, 255, 255);">
<rect width="100" height="100"/>
</g></g><g transform="translate(775,589) scale(0.31,0.31)"><g transform="" style="fill: rgb(255, 255, 255);">
<g>
	<path d="M100,59.375V0H0v59.375L50,100L100,59.375z"/>
</g>
</g></g><g transform="translate(837,589) scale(0.31,0.31)"><g transform="" style="fill: rgb(255, 255, 255);">
<g>
	<path d="M100,40.625V100H0V40.625L50,0L100,40.625z"/>
</g>
</g></g><g transform="translate(899,589) scale(0.31,0.31)"><g transform="" style="fill: rgb(255, 255, 255);">
<g>
	<path d="M40.625,0H100v100H40.625L0,50L40.625,0z"/>
</g>
</g></g><g transform="translate(930,589) scale(0.31,0.31)"><g transform="" style="fill: rgb(255, 255, 255);">
<rect width="100" height="100"/>
</g></g><g transform="translate(961,589) scale(0.31,0.31)"><g transform="" style="fill: rgb(255, 255, 255);">
<rect width="100" height="100"/>
</g></g><g transform="translate(992,589) scale(0.31,0.31)"><g transform="" style="fill: rgb(255, 255, 255);">
<rect width="100" height="100"/>
</g></g><g transform="translate(0,620) scale(0.31,0.31)"><g transform="" style="fill: rgb(255, 255, 255);">
<g>
	<path d="M100,40.625V100H0V40.625L50,0L100,40.625z"/>
</g>
</g></g><g transform="translate(186,620) scale(0.31,0.31)"><g transform="" style="fill: rgb(255, 255, 255);">
<g>
	<path d="M40.625,0H100v100H40.625L0,50L40.625,0z"/>
</g>
</g></g><g transform="translate(217,620) scale(0.31,0.31)"><g transform="" style="fill: rgb(255, 255, 255);">
<g>
	<path d="M59.375,0H0v100h59.375L100,50L59.375,0z"/>
</g>
</g></g><g transform="translate(310,620) scale(0.31,0.31)"><g transform="" style="fill: rgb(255, 255, 255);">
<rect width="100" height="100"/>
</g></g><g transform="translate(682,620) scale(0.31,0.31)"><g transform="" style="fill: rgb(255, 255, 255);">
<rect width="100" height="100"/>
</g></g><g transform="translate(744,620) scale(0.31,0.31)"><g transform="" style="fill: rgb(255, 255, 255);">
<rect width="100" height="100"/>
</g></g><g transform="translate(837,620) scale(0.31,0.31)"><g transform="" style="fill: rgb(255, 255, 255);">
<rect width="100" height="100"/>
</g></g><g transform="translate(868,620) scale(0.31,0.31)"><g transform="" style="fill: rgb(255, 255, 255);">
<rect width="100" height="100"/>
</g></g><g transform="translate(0,651) scale(0.31,0.31)"><g transform="" style="fill: rgb(255, 255, 255);">
<rect width="100" height="100"/>
</g></g><g transform="translate(124,651) scale(0.31,0.31)"><g transform="" style="fill: rgb(255, 255, 255);">
<rect width="100" height="100"/>
</g></g><g transform="translate(155,651) scale(0.31,0.31)"><g transform="" style="fill: rgb(255, 255, 255);">
<g>
	<path d="M59.375,0H0v100h59.375L100,50L59.375,0z"/>
</g>
</g></g><g transform="translate(310,651) scale(0.31,0.31)"><g transform="" style="fill: rgb(255, 255, 255);">
<rect width="100" height="100"/>
</g></g><g transform="translate(682,651) scale(0.31,0.31)"><g transform="" style="fill: rgb(255, 255, 255);">
<rect width="100" height="100"/>
</g></g><g transform="translate(775,651) scale(0.31,0.31)"><g transform="" style="fill: rgb(255, 255, 255);">
<rect width="100" height="100"/>
</g></g><g transform="translate(806,651) scale(0.31,0.31)"><g transform="" style="fill: rgb(255, 255, 255);">
<rect width="100" height="100"/>
</g></g><g transform="translate(837,651) scale(0.31,0.31)"><g transform="" style="fill: rgb(255, 255, 255);">
<rect width="100" height="100"/>
</g></g><g transform="translate(868,651) scale(0.31,0.31)"><g transform="" style="fill: rgb(255, 255, 255);">
<rect width="100" height="100"/>
</g></g><g transform="translate(930,651) scale(0.31,0.31)"><g transform="" style="fill: rgb(255, 255, 255);">
<g>
	<path d="M100,40.625V100H0V40.625L50,0L100,40.625z"/>
</g>
</g></g><g transform="translate(0,682) scale(0.31,0.31)"><g transform="" style="fill: rgb(255, 255, 255);">
<rect width="100" height="100"/>
</g></g><g transform="translate(62,682) scale(0.31,0.31)"><g transform="" style="fill: rgb(255, 255, 255);">
<rect width="100" height="100"/>
</g></g><g transform="translate(124,682) scale(0.31,0.31)"><g transform="" style="fill: rgb(255, 255, 255);">
<g>
	<path d="M100,59.375V0H0v59.375L50,100L100,59.375z"/>
</g>
</g></g><g transform="translate(186,682) scale(0.31,0.31)"><g transform="" style="fill: rgb(255, 255, 255);">
<rect width="100" height="100"/>
</g></g><g transform="translate(310,682) scale(0.31,0.31)"><g transform="" style="fill: rgb(255, 255, 255);">
<rect width="100" height="100"/>
</g></g><g transform="translate(341,682) scale(0.31,0.31)"><g transform="" style="fill: rgb(255, 255, 255);">
<rect width="100" height="100"/>
</g></g><g transform="translate(372,682) scale(0.31,0.31)"><g transform="" style="fill: rgb(255, 255, 255);">
<rect width="100" height="100"/>
</g></g><g transform="translate(403,682) scale(0.31,0.31)"><g transform="" style="fill: rgb(255, 255, 255);">
<rect width="100" height="100"/>
</g></g><g transform="translate(465,682) scale(0.31,0.31)"><g transform="" style="fill: rgb(255, 255, 255);">
<rect width="100" height="100"/>
</g></g><g transform="translate(527,682) scale(0.31,0.31)"><g transform="" style="fill: rgb(255, 255, 255);">
<g>
	<path d="M40.625,0H100v100H40.625L0,50L40.625,0z"/>
</g>
</g></g><g transform="translate(558,682) scale(0.31,0.31)"><g transform="" style="fill: rgb(255, 255, 255);">
<rect width="100" height="100"/>
</g></g><g transform="translate(682,682) scale(0.31,0.31)"><g transform="" style="fill: rgb(255, 255, 255);">
<rect width="100" height="100"/>
</g></g><g transform="translate(713,682) scale(0.31,0.31)"><g transform="" style="fill: rgb(255, 255, 255);">
<rect width="100" height="100"/>
</g></g><g transform="translate(744,682) scale(0.31,0.31)"><g transform="" style="fill: rgb(255, 255, 255);">
<rect width="100" height="100"/>
</g></g><g transform="translate(775,682) scale(0.31,0.31)"><g transform="" style="fill: rgb(255, 255, 255);">
<rect width="100" height="100"/>
</g></g><g transform="translate(806,682) scale(0.31,0.31)"><g transform="" style="fill: rgb(255, 255, 255);">
<rect width="100" height="100"/>
</g></g><g transform="translate(868,682) scale(0.31,0.31)"><g transform="" style="fill: rgb(255, 255, 255);">
<rect width="100" height="100"/>
</g></g><g transform="translate(899,682) scale(0.31,0.31)"><g transform="" style="fill: rgb(255, 255, 255);">
<rect width="100" height="100"/>
</g></g><g transform="translate(930,682) scale(0.31,0.31)"><g transform="" style="fill: rgb(255, 255, 255);">
<rect width="100" height="100"/>
</g></g><g transform="translate(961,682) scale(0.31,0.31)"><g transform="" style="fill: rgb(255, 255, 255);">
<rect width="100" height="100"/>
</g></g><g transform="translate(0,713) scale(0.31,0.31)"><g transform="" style="fill: rgb(255, 255, 255);">
<rect width="100" height="100"/>
</g></g><g transform="translate(279,713) scale(0.31,0.31)"><g transform="" style="fill: rgb(255, 255, 255);">
<g>
	<path d="M40.625,0H100v100H40.625L0,50L40.625,0z"/>
</g>
</g></g><g transform="translate(310,713) scale(0.31,0.31)"><g transform="" style="fill: rgb(255, 255, 255);">
<rect width="100" height="100"/>
</g></g><g transform="translate(341,713) scale(0.31,0.31)"><g transform="" style="fill: rgb(255, 255, 255);">
<rect width="100" height="100"/>
</g></g><g transform="translate(372,713) scale(0.31,0.31)"><g transform="" style="fill: rgb(255, 255, 255);">
<rect width="100" height="100"/>
</g></g><g transform="translate(403,713) scale(0.31,0.31)"><g transform="" style="fill: rgb(255, 255, 255);">
<rect width="100" height="100"/>
</g></g><g transform="translate(434,713) scale(0.31,0.31)"><g transform="" style="fill: rgb(255, 255, 255);">
<rect width="100" height="100"/>
</g></g><g transform="translate(558,713) scale(0.31,0.31)"><g transform="" style="fill: rgb(255, 255, 255);">
<g>
	<path d="M100,59.375V0H0v59.375L50,100L100,59.375z"/>
</g>
</g></g><g transform="translate(620,713) scale(0.31,0.31)"><g transform="" style="fill: rgb(255, 255, 255);">
<rect width="100" height="100"/>
</g></g><g transform="translate(713,713) scale(0.31,0.31)"><g transform="" style="fill: rgb(255, 255, 255);">
<g>
	<path d="M100,59.375V0H0v59.375L50,100L100,59.375z"/>
</g>
</g></g><g transform="translate(868,713) scale(0.31,0.31)"><g transform="" style="fill: rgb(255, 255, 255);">
<rect width="100" height="100"/>
</g></g><g transform="translate(899,713) scale(0.31,0.31)"><g transform="" style="fill: rgb(255, 255, 255);">
<rect width="100" height="100"/>
</g></g><g transform="translate(930,713) scale(0.31,0.31)"><g transform="" style="fill: rgb(255, 255, 255);">
<rect width="100" height="100"/>
</g></g><g transform="translate(961,713) scale(0.31,0.31)"><g transform="" style="fill: rgb(255, 255, 255);">
<rect width="100" height="100"/>
</g></g><g transform="translate(0,744) scale(0.31,0.31)"><g transform="" style="fill: rgb(255, 255, 255);">
<rect width="100" height="100"/>
</g></g><g transform="translate(31,744) scale(0.31,0.31)"><g transform="" style="fill: rgb(255, 255, 255);">
<rect width="100" height="100"/>
</g></g><g transform="translate(62,744) scale(0.31,0.31)"><g transform="" style="fill: rgb(255, 255, 255);">
<rect width="100" height="100"/>
</g></g><g transform="translate(93,744) scale(0.31,0.31)"><g transform="" style="fill: rgb(255, 255, 255);">
<rect width="100" height="100"/>
</g></g><g transform="translate(124,744) scale(0.31,0.31)"><g transform="" style="fill: rgb(255, 255, 255);">
<rect width="100" height="100"/>
</g></g><g transform="translate(155,744) scale(0.31,0.31)"><g transform="" style="fill: rgb(255, 255, 255);">
<rect width="100" height="100"/>
</g></g><g transform="translate(186,744) scale(0.31,0.31)"><g transform="" style="fill: rgb(255, 255, 255);">
<rect width="100" height="100"/>
</g></g><g transform="translate(217,744) scale(0.31,0.31)"><g transform="" style="fill: rgb(255, 255, 255);">
<rect width="100" height="100"/>
</g></g><g transform="translate(248,744) scale(0.31,0.31)"><g transform="" style="fill: rgb(255, 255, 255);">
<rect width="100" height="100"/>
</g></g><g transform="translate(434,744) scale(0.31,0.31)"><g transform="" style="fill: rgb(255, 255, 255);">
<g>
	<path d="M100,59.375V0H0v59.375L50,100L100,59.375z"/>
</g>
</g></g><g transform="translate(527,744) scale(0.31,0.31)"><g transform="" style="fill: rgb(255, 255, 255);">
<rect width="100" height="100"/>
</g></g><g transform="translate(744,744) scale(0.31,0.31)"><g transform="" style="fill: rgb(255, 255, 255);">
<rect width="100" height="100"/>
</g></g><g transform="translate(775,744) scale(0.31,0.31)"><g transform="" style="fill: rgb(255, 255, 255);">
<rect width="100" height="100"/>
</g></g><g transform="translate(806,744) scale(0.31,0.31)"><g transform="" style="fill: rgb(255, 255, 255);">
<rect width="100" height="100"/>
</g></g><g transform="translate(837,744) scale(0.31,0.31)"><g transform="" style="fill: rgb(255, 255, 255);">
<rect width="100" height="100"/>
</g></g><g transform="translate(868,744) scale(0.31,0.31)"><g transform="" style="fill: rgb(255, 255, 255);">
<rect width="100" height="100"/>
</g></g><g transform="translate(899,744) scale(0.31,0.31)"><g transform="" style="fill: rgb(255, 255, 255);">
<rect width="100" height="100"/>
</g></g><g transform="translate(961,744) scale(0.31,0.31)"><g transform="" style="fill: rgb(255, 255, 255);">
<g>
	<path d="M100,59.375V0H0v59.375L50,100L100,59.375z"/>
</g>
</g></g><g transform="translate(248,775) scale(0.31,0.31)"><g transform="" style="fill: rgb(255, 255, 255);">
<g>
	<path d="M100,59.375V0H0v59.375L50,100L100,59.375z"/>
</g>
</g></g><g transform="translate(403,775) scale(0.31,0.31)"><g transform="" style="fill: rgb(255, 255, 255);">
<rect width="100" height="100"/>
</g></g><g transform="translate(465,775) scale(0.31,0.31)"><g transform="" style="fill: rgb(255, 255, 255);">
<rect width="100" height="100"/>
</g></g><g transform="translate(744,775) scale(0.31,0.31)"><g transform="" style="fill: rgb(255, 255, 255);">
<rect width="100" height="100"/>
</g></g><g transform="translate(868,775) scale(0.31,0.31)"><g transform="" style="fill: rgb(255, 255, 255);">
<rect width="100" height="100"/>
</g></g><g transform="translate(930,775) scale(0.31,0.31)"><g transform="" style="fill: rgb(255, 255, 255);">
<g>
	<path d="M100,40.625V100H0V40.625L50,0L100,40.625z"/>
</g>
</g></g><g transform="translate(992,775) scale(0.31,0.31)"><g transform="" style="fill: rgb(255, 255, 255);">
<rect width="100" height="100"/>
</g></g><g transform="translate(279,806) scale(0.31,0.31)"><g transform="" style="fill: rgb(255, 255, 255);">
<g>
	<path d="M40.625,0H100v100H40.625L0,50L40.625,0z"/>
</g>
</g></g><g transform="translate(310,806) scale(0.31,0.31)"><g transform="" style="fill: rgb(255, 255, 255);">
<rect width="100" height="100"/>
</g></g><g transform="translate(341,806) scale(0.31,0.31)"><g transform="" style="fill: rgb(255, 255, 255);">
<g>
	<path d="M59.375,0H0v100h59.375L100,50L59.375,0z"/>
</g>
</g></g><g transform="translate(589,806) scale(0.31,0.31)"><g transform="" style="fill: rgb(255, 255, 255);">
<rect width="100" height="100"/>
</g></g><g transform="translate(620,806) scale(0.31,0.31)"><g transform="" style="fill: rgb(255, 255, 255);">
<rect width="100" height="100"/>
</g></g><g transform="translate(651,806) scale(0.31,0.31)"><g transform="" style="fill: rgb(255, 255, 255);">
<g>
	<path d="M59.375,0H0v100h59.375L100,50L59.375,0z"/>
</g>
</g></g><g transform="translate(713,806) scale(0.31,0.31)"><g transform="" style="fill: rgb(255, 255, 255);">
<rect width="100" height="100"/>
</g></g><g transform="translate(744,806) scale(0.31,0.31)"><g transform="" style="fill: rgb(255, 255, 255);">
<rect width="100" height="100"/>
</g></g><g transform="translate(806,806) scale(0.31,0.31)"><g transform="" style="fill: rgb(255, 255, 255);">
<rect width="100" height="100"/>
</g></g><g transform="translate(868,806) scale(0.31,0.31)"><g transform="" style="fill: rgb(255, 255, 255);">
<rect width="100" height="100"/>
</g></g><g transform="translate(930,806) scale(0.31,0.31)"><g transform="" style="fill: rgb(255, 255, 255);">
<rect width="100" height="100"/>
</g></g><g transform="translate(961,806) scale(0.31,0.31)"><g transform="" style="fill: rgb(255, 255, 255);">
<rect width="100" height="100"/>
</g></g><g transform="translate(248,837) scale(0.31,0.31)"><g transform="" style="fill: rgb(255, 255, 255);">
<rect width="100" height="100"/>
</g></g><g transform="translate(403,837) scale(0.31,0.31)"><g transform="" style="fill: rgb(255, 255, 255);">
<rect width="100" height="100"/>
</g></g><g transform="translate(465,837) scale(0.31,0.31)"><g transform="" style="fill: rgb(255, 255, 255);">
<g>
	<path d="M100,40.625V100H0V40.625L50,0L100,40.625z"/>
</g>
</g></g><g transform="translate(527,837) scale(0.31,0.31)"><g transform="" style="fill: rgb(255, 255, 255);">
<g>
	<path d="M40.625,0H100v100H40.625L0,50L40.625,0z"/>
</g>
</g></g><g transform="translate(558,837) scale(0.31,0.31)"><g transform="" style="fill: rgb(255, 255, 255);">
<rect width="100" height="100"/>
</g></g><g transform="translate(589,837) scale(0.31,0.31)"><g transform="" style="fill: rgb(255, 255, 255);">
<rect width="100" height="100"/>
</g></g><g transform="translate(713,837) scale(0.31,0.31)"><g transform="" style="fill: rgb(255, 255, 255);">
<rect width="100" height="100"/>
</g></g><g transform="translate(744,837) scale(0.31,0.31)"><g transform="" style="fill: rgb(255, 255, 255);">
<rect width="100" height="100"/>
</g></g><g transform="translate(868,837) scale(0.31,0.31)"><g transform="" style="fill: rgb(255, 255, 255);">
<rect width="100" height="100"/>
</g></g><g transform="translate(899,837) scale(0.31,0.31)"><g transform="" style="fill: rgb(255, 255, 255);">
<rect width="100" height="100"/>
</g></g><g transform="translate(930,837) scale(0.31,0.31)"><g transform="" style="fill: rgb(255, 255, 255);">
<rect width="100" height="100"/>
</g></g><g transform="translate(961,837) scale(0.31,0.31)"><g transform="" style="fill: rgb(255, 255, 255);">
<rect width="100" height="100"/>
</g></g><g transform="translate(992,837) scale(0.31,0.31)"><g transform="" style="fill: rgb(255, 255, 255);">
<g>
	<path d="M59.375,0H0v100h59.375L100,50L59.375,0z"/>
</g>
</g></g><g transform="translate(279,868) scale(0.31,0.31)"><g transform="" style="fill: rgb(255, 255, 255);">
<rect width="100" height="100"/>
</g></g><g transform="translate(341,868) scale(0.31,0.31)"><g transform="" style="fill: rgb(255, 255, 255);">
<g>
	<path d="M100,40.625V100H0V40.625L50,0L100,40.625z"/>
</g>
</g></g><g transform="translate(465,868) scale(0.31,0.31)"><g transform="" style="fill: rgb(255, 255, 255);">
<rect width="100" height="100"/>
</g></g><g transform="translate(589,868) scale(0.31,0.31)"><g transform="" style="fill: rgb(255, 255, 255);">
<g>
	<path d="M100,59.375V0H0v59.375L50,100L100,59.375z"/>
</g>
</g></g><g transform="translate(651,868) scale(0.31,0.31)"><g transform="" style="fill: rgb(255, 255, 255);">
<rect width="100" height="100"/>
</g></g><g transform="translate(744,868) scale(0.31,0.31)"><g transform="" style="fill: rgb(255, 255, 255);">
<rect width="100" height="100"/>
</g></g><g transform="translate(775,868) scale(0.31,0.31)"><g transform="" style="fill: rgb(255, 255, 255);">
<rect width="100" height="100"/>
</g></g><g transform="translate(806,868) scale(0.31,0.31)"><g transform="" style="fill: rgb(255, 255, 255);">
<rect width="100" height="100"/>
</g></g><g transform="translate(837,868) scale(0.31,0.31)"><g transform="" style="fill: rgb(255, 255, 255);">
<rect width="100" height="100"/>
</g></g><g transform="translate(868,868) scale(0.31,0.31)"><g transform="" style="fill: rgb(255, 255, 255);">
<rect width="100" height="100"/>
</g></g><g transform="translate(341,899) scale(0.31,0.31)"><g transform="" style="fill: rgb(255, 255, 255);">
<rect width="100" height="100"/>
</g></g><g transform="translate(403,899) scale(0.31,0.31)"><g transform="" style="fill: rgb(255, 255, 255);">
<rect width="100" height="100"/>
</g></g><g transform="translate(434,899) scale(0.31,0.31)"><g transform="" style="fill: rgb(255, 255, 255);">
<rect width="100" height="100"/>
</g></g><g transform="translate(465,899) scale(0.31,0.31)"><g transform="" style="fill: rgb(255, 255, 255);">
<rect width="100" height="100"/>
</g></g><g transform="translate(527,899) scale(0.31,0.31)"><g transform="" style="fill: rgb(255, 255, 255);">
<g>
	<path d="M100,40.625V100H0V40.625L50,0L100,40.625z"/>
</g>
</g></g><g transform="translate(682,899) scale(0.31,0.31)"><g transform="" style="fill: rgb(255, 255, 255);">
<g>
	<path d="M40.625,0H100v100H40.625L0,50L40.625,0z"/>
</g>
</g></g><g transform="translate(713,899) scale(0.31,0.31)"><g transform="" style="fill: rgb(255, 255, 255);">
<rect width="100" height="100"/>
</g></g><g transform="translate(744,899) scale(0.31,0.31)"><g transform="" style="fill: rgb(255, 255, 255);">
<rect width="100" height="100"/>
</g></g><g transform="translate(775,899) scale(0.31,0.31)"><g transform="" style="fill: rgb(255, 255, 255);">
<rect width="100" height="100"/>
</g></g><g transform="translate(868,899) scale(0.31,0.31)"><g transform="" style="fill: rgb(255, 255, 255);">
<rect width="100" height="100"/>
</g></g><g transform="translate(899,899) scale(0.31,0.31)"><g transform="" style="fill: rgb(255, 255, 255);">
<g>
	<path d="M59.375,0H0v100h59.375L100,50L59.375,0z"/>
</g>
</g></g><g transform="translate(961,899) scale(0.31,0.31)"><g transform="" style="fill: rgb(255, 255, 255);">
<g>
	<path d="M100,40.625V100H0V40.625L50,0L100,40.625z"/>
</g>
</g></g><g transform="translate(279,930) scale(0.31,0.31)"><g transform="" style="fill: rgb(255, 255, 255);">
<rect width="100" height="100"/>
</g></g><g transform="translate(310,930) scale(0.31,0.31)"><g transform="" style="fill: rgb(255, 255, 255);">
<rect width="100" height="100"/>
</g></g><g transform="translate(341,930) scale(0.31,0.31)"><g transform="" style="fill: rgb(255, 255, 255);">
<rect width="100" height="100"/>
</g></g><g transform="translate(372,930) scale(0.31,0.31)"><g transform="" style="fill: rgb(255, 255, 255);">
<rect width="100" height="100"/>
</g></g><g transform="translate(403,930) scale(0.31,0.31)"><g transform="" style="fill: rgb(255, 255, 255);">
<rect width="100" height="100"/>
</g></g><g transform="translate(434,930) scale(0.31,0.31)"><g transform="" style="fill: rgb(255, 255, 255);">
<rect width="100" height="100"/>
</g></g><g transform="translate(465,930) scale(0.31,0.31)"><g transform="" style="fill: rgb(255, 255, 255);">
<rect width="100" height="100"/>
</g></g><g transform="translate(527,930) scale(0.31,0.31)"><g transform="" style="fill: rgb(255, 255, 255);">
<rect width="100" height="100"/>
</g></g><g transform="translate(558,930) scale(0.31,0.31)"><g transform="" style="fill: rgb(255, 255, 255);">
<g>
	<path d="M59.375,0H0v100h59.375L100,50L59.375,0z"/>
</g>
</g></g><g transform="translate(620,930) scale(0.31,0.31)"><g transform="" style="fill: rgb(255, 255, 255);">
<g>
	<path d="M100,40.625V100H0V40.625L50,0L100,40.625z"/>
</g>
</g></g><g transform="translate(713,930) scale(0.31,0.31)"><g transform="" style="fill: rgb(255, 255, 255);">
<rect width="100" height="100"/>
</g></g><g transform="translate(744,930) scale(0.31,0.31)"><g transform="" style="fill: rgb(255, 255, 255);">
<rect width="100" height="100"/>
</g></g><g transform="translate(868,930) scale(0.31,0.31)"><g transform="" style="fill: rgb(255, 255, 255);">
<g>
	<path d="M100,59.375V0H0v59.375L50,100L100,59.375z"/>
</g>
</g></g><g transform="translate(930,930) scale(0.31,0.31)"><g transform="" style="fill: rgb(255, 255, 255);">
<rect width="100" height="100"/>
</g></g><g transform="translate(961,930) scale(0.31,0.31)"><g transform="" style="fill: rgb(255, 255, 255);">
<rect width="100" height="100"/>
</g></g><g transform="translate(992,930) scale(0.31,0.31)"><g transform="" style="fill: rgb(255, 255, 255);">
<g>
	<path d="M59.375,0H0v100h59.375L100,50L59.375,0z"/>
</g>
</g></g><g transform="translate(279,961) scale(0.31,0.31)"><g transform="" style="fill: rgb(255, 255, 255);">
<rect width="100" height="100"/>
</g></g><g transform="translate(403,961) scale(0.31,0.31)"><g transform="" style="fill: rgb(255, 255, 255);">
<rect width="100" height="100"/>
</g></g><g transform="translate(589,961) scale(0.31,0.31)"><g transform="" style="fill: rgb(255, 255, 255);">
<g>
	<path d="M40.625,0H100v100H40.625L0,50L40.625,0z"/>
</g>
</g></g><g transform="translate(620,961) scale(0.31,0.31)"><g transform="" style="fill: rgb(255, 255, 255);">
<rect width="100" height="100"/>
</g></g><g transform="translate(651,961) scale(0.31,0.31)"><g transform="" style="fill: rgb(255, 255, 255);">
<rect width="100" height="100"/>
</g></g><g transform="translate(682,961) scale(0.31,0.31)"><g transform="" style="fill: rgb(255, 255, 255);">
<g>
	<path d="M59.375,0H0v100h59.375L100,50L59.375,0z"/>
</g>
</g></g><g transform="translate(775,961) scale(0.31,0.31)"><g transform="" style="fill: rgb(255, 255, 255);">
<rect width="100" height="100"/>
</g></g><g transform="translate(806,961) scale(0.31,0.31)"><g transform="" style="fill: rgb(255, 255, 255);">
<rect width="100" height="100"/>
</g></g><g transform="translate(837,961) scale(0.31,0.31)"><g transform="" style="fill: rgb(255, 255, 255);">
<rect width="100" height="100"/>
</g></g><g transform="translate(930,961) scale(0.31,0.31)"><g transform="" style="fill: rgb(255, 255, 255);">
<rect width="100" height="100"/>
</g></g><g transform="translate(279,992) scale(0.31,0.31)"><g transform="" style="fill: rgb(255, 255, 255);">
<rect width="100" height="100"/>
</g></g><g transform="translate(310,992) scale(0.31,0.31)"><g transform="" style="fill: rgb(255, 255, 255);">
<g>
	<path d="M59.375,0H0v100h59.375L100,50L59.375,0z"/>
</g>
</g></g><g transform="translate(403,992) scale(0.31,0.31)"><g transform="" style="fill: rgb(255, 255, 255);">
<rect width="100" height="100"/>
</g></g><g transform="translate(434,992) scale(0.31,0.31)"><g transform="" style="fill: rgb(255, 255, 255);">
<g>
	<path d="M59.375,0H0v100h59.375L100,50L59.375,0z"/>
</g>
</g></g><g transform="translate(496,992) scale(0.31,0.31)"><g transform="" style="fill: rgb(255, 255, 255);">
<rect width="100" height="100"/>
</g></g><g transform="translate(558,992) scale(0.31,0.31)"><g transform="" style="fill: rgb(255, 255, 255);">
<rect width="100" height="100"/>
</g></g><g transform="translate(620,992) scale(0.31,0.31)"><g transform="" style="fill: rgb(255, 255, 255);">
<rect width="100" height="100"/>
</g></g><g transform="translate(651,992) scale(0.31,0.31)"><g transform="" style="fill: rgb(255, 255, 255);">
<rect width="100" height="100"/>
</g></g><g transform="translate(713,992) scale(0.31,0.31)"><g transform="" style="fill: rgb(255, 255, 255);">
<g>
	<path d="M40.625,0H100v100H40.625L0,50L40.625,0z"/>
</g>
</g></g><g transform="translate(744,992) scale(0.31,0.31)"><g transform="" style="fill: rgb(255, 255, 255);">
<rect width="100" height="100"/>
</g></g><g transform="translate(775,992) scale(0.31,0.31)"><g transform="" style="fill: rgb(255, 255, 255);">
<rect width="100" height="100"/>
</g></g><g transform="translate(837,992) scale(0.31,0.31)"><g transform="" style="fill: rgb(255, 255, 255);">
<g>
	<path d="M100,59.375V0H0v59.375L50,100L100,59.375z"/>
</g>
</g></g><g transform="translate(930,992) scale(0.31,0.31)"><g transform="" style="fill: rgb(255, 255, 255);">
<rect width="100" height="100"/>
</g></g><g transform="translate(961,992) scale(0.31,0.31)"><g transform="" style="fill: rgb(255, 255, 255);">
<g>
	<path d="M59.375,0H0v100h59.375L100,50L59.375,0z"/>
</g>
</g></g><g transform="translate(0,0) scale(2.17, 2.17)"><g transform="" style="fill: rgb(255, 255, 255);">
<g>
	<rect x="15" y="15" style="fill:none;" width="70" height="70"/>
	<path d="M85,0H15H0v15v70v15h15h70h15V85V15V0H85z M85,85H15V15h70V85z"/>
</g>
</g></g><g transform="translate(806,0) scale(2.17, 2.17)"><g transform="" style="fill: rgb(255, 255, 255);">
<g>
	<rect x="15" y="15" style="fill:none;" width="70" height="70"/>
	<path d="M85,0H15H0v15v70v15h15h70h15V85V15V0H85z M85,85H15V15h70V85z"/>
</g>
</g></g><g transform="translate(0,806) scale(2.17, 2.17)"><g transform="" style="fill: rgb(255, 255, 255);">
<g>
	<rect x="15" y="15" style="fill:none;" width="70" height="70"/>
	<path d="M85,0H15H0v15v70v15h15h70h15V85V15V0H85z M85,85H15V15h70V85z"/>
</g>
</g></g><g transform="translate(62,62) scale(0.93, 0.93)"><g transform="" style="fill: rgb(255, 255, 255);">
<rect width="100" height="100"/>
</g></g><g transform="translate(868,62) scale(0.93, 0.93)"><g transform="" style="fill: rgb(255, 255, 255);">
<rect width="100" height="100"/>
</g></g><g transform="translate(62,868) scale(0.93, 0.93)"><g transform="" style="fill: rgb(255, 255, 255);">
<rect width="100" height="100"/>
</g></g></g></mask></defs></g><rect x="0" y="0" width="1023" height="1023" fill="url(#grad)" mask="url(#gmask)" /><g transform="translate(341,341) scale(0.341,0.341)" width="341" height="341"><svg
   xmlns:dc="http://purl.org/dc/elements/1.1/"
   xmlns:cc="http://creativecommons.org/ns#"
   xmlns:rdf="http://www.w3.org/1999/02/22-rdf-syntax-ns#"
   xmlns:svg="http://www.w3.org/2000/svg"
   xmlns="http://www.w3.org/2000/svg"
   version="1.1"
   width="1000"
   height="1000"
   viewBox="0 0 1000 1000"
   id="Layer_1"
   xml:space="preserve"><metadata
     id="metadata91"><rdf:RDF><cc:Work
         rdf:about=""><dc:format>image/svg+xml</dc:format><dc:type
           rdf:resource="http://purl.org/dc/dcmitype/StillImage" /><dc:title></dc:title></cc:Work></rdf:RDF></metadata><defs
     id="defs89" /><g
     transform="matrix(2.0233699,0,0,2.0233699,-19.585452,-1.3925981)"
     id="g3"><path
       d="m 461.1,70.3 c 4.5,-2.7 9.1,-1.2 13.5,0 17.1,4.7 29.2,20.4 29.5,38.3 0.1,4.5 -0.1,9 -0.1,13.4 -1.3,0 -2.1,0.8 -3.1,1.5 -12.6,9 -25.4,18 -37.9,27.1 -5.1,3.7 -10.7,6.6 -15,11.3 -1.8,0 -3.1,1.2 -4.4,2.1 -41.6,28.7 -83.2,57.3 -124.7,86 -20.6,14.2 -41.2,28.6 -61.8,42.9 -0.6,0 -1.2,0 -1.7,0 -0.9,-0.7 -1.7,-1.6 -2.6,-2.2 C 202.1,255.4 151.4,220.1 100.7,184.8 90.3,177.6 79.9,170.3 69.5,163.1 c -1.2,-0.8 -2.3,-2.5 -3.8,-1.6 -1.4,0.8 -0.5,2.7 -0.7,4.2 -0.1,0.5 0,1 0,1.5 0,83.5 0,167 0,250.5 0,1.8 0.1,3.7 0.2,5.5 0,1 -0.1,1.9 -0.1,2.9 -19,2.3 -36.3,-0.3 -48.2,-17.5 -4.3,-6.3 -6.8,-13.3 -6.8,-21.1 0,-93.3 -0.1,-186.5 0.1,-279.8 0,-19 15.4,-35.8 34.3,-38.5 3,-0.4 6,-0.8 8.6,1.2 0.6,0.6 1.1,1.2 1.8,1.7 66.1,49 132.2,98 198.3,147.1 2.6,1.9 4.3,1.8 6.9,-0.1 52.8,-39 105.7,-77.9 158.5,-116.8 14,-10.7 28.2,-21.4 42.5,-32 z"
       id="path5"
       style="fill:#e65a4d" /><path
       d="m 461.1,70.3 c -14.3,10.6 -28.5,21.3 -42.8,31.9 -52.8,39 -105.7,77.8 -158.5,116.8 -2.6,1.9 -4.2,2 -6.9,0.1 C 186.9,170 120.8,121.1 54.7,72 54,71.5 53.5,70.9 52.9,70.3 c 1.2,-2 3.3,-1.3 5,-1.3 132.7,0 265.5,0 398.2,0 1.7,0 3.7,-0.7 5,1.3 z"
       id="path7"
       style="fill:#f6f4ec" /><path
       d="m 65,423 c -0.1,-1.8 -0.2,-3.7 -0.2,-5.5 0,-83.5 0,-167 0,-250.5 0,-0.5 -0.1,-1 0,-1.5 0.2,-1.4 -0.7,-3.3 0.7,-4.2 1.5,-0.9 2.7,0.8 3.8,1.6 10.4,7.2 20.8,14.5 31.2,21.7 50.7,35.3 101.4,70.6 152.1,105.9 0.9,0.7 1.8,1.5 2.6,2.2 -0.4,0.4 -0.9,0.7 -1.3,1.1 -0.3,0.3 -0.7,0.7 -1,1 -0.8,0 -1.6,0.2 -2,1 -0.3,0.3 -0.7,0.7 -1,1 -0.1,0.2 -0.3,0.3 -0.4,0.5 0.2,-0.1 0.3,-0.3 0.5,-0.4 0.3,-0.3 0.7,-0.7 1,-1 0.8,0 1.6,-0.2 2,-1 0.3,-0.3 0.7,-0.7 1,-1 1,0 2,-0.1 3,-0.1 13.9,9.7 27.9,19.3 41.8,29 41.4,28.7 82.8,57.3 124.1,86.2 7.4,5.2 15.5,9.7 22.1,16 -1.8,1.7 -4,0.6 -6,0.9 0.1,-2.3 -1.9,-2.9 -3.4,-3.9 -7.6,-5.3 -15.4,-10.4 -22.8,-15.9 -12.4,-9.1 -25,-17.8 -37.6,-26.6 -10.5,-7.3 -20.9,-14.9 -31.7,-21.8 -9.4,-6 -18.1,-13.2 -27.5,-19.3 -10.6,-6.8 -20.6,-14.4 -31.1,-21.3 -8.7,-5.7 -17.2,-11.8 -25.7,-17.8 -1.7,-1.2 -3.2,-1.7 -5,-0.5 -3.6,2.6 -8.2,4.3 -11.2,7.1 -8.6,7.9 -19.1,13 -28.1,20.2 -11.5,9.1 -23.9,17.2 -36.2,25.3 -20.4,13.5 -40.2,28.1 -60.5,41.7 -12.1,8.1 -24.1,16.3 -35.7,25.2 -3.2,2.4 -7.5,3.5 -9.5,7.5 -2,-0.2 -4.2,0.6 -6.1,-0.7 35.8,-25 71.6,-49.9 107.3,-74.9 4.7,-3.3 10,-5.9 13.9,-10.3 0.7,-0.2 1.6,-0.3 1.5,-1.3 0,-0.1 -0.2,-0.3 -0.3,-0.3 -1,-0.1 -1.2,0.7 -1.4,1.4 -3.6,0.2 -5.8,3 -8.5,4.8 C 141.3,370.8 103.1,396.9 65,423 z M 237,306 c 0.3,-0.3 0.7,-0.7 1,-1 0.8,0 1.6,-0.2 2,-1 0.3,-0.3 0.7,-0.7 1,-1 0.8,0 1.6,-0.2 2,-1 0.1,-0.2 0.3,-0.3 0.4,-0.5 -0.2,0.1 -0.3,0.3 -0.5,0.4 -0.8,0 -1.6,0.2 -2,1 -0.3,0.3 -0.7,0.7 -1,1 -0.8,0 -1.6,0.2 -2,1 -0.3,0.4 -0.6,0.7 -0.9,1.1 -0.2,0.1 -0.4,0.2 -0.5,0.4 0.2,-0.1 0.4,-0.2 0.5,-0.4 z m -13,8.9 c -0.8,0 -1.6,0.2 -2,1 -0.6,0.1 -1.4,0.1 -1.5,1 0,0.2 0.4,0.6 0.6,0.6 0.8,-0.1 0.9,-0.8 1,-1.4 0.8,-0.1 1.5,-0.2 1.9,-1.2 0.4,-0.2 0.8,-0.6 1.1,-0.9 0.8,0 1.6,-0.2 2,-1 0.3,-0.3 0.7,-0.7 1,-1 0.8,0 1.6,-0.2 2,-1 0.1,-0.2 0.3,-0.3 0.4,-0.5 -0.2,0.1 -0.3,0.3 -0.5,0.4 -0.8,0 -1.6,0.2 -2,1 -0.3,0.3 -0.7,0.7 -1,1 -0.8,0 -1.6,0.2 -2,1 -0.4,0.4 -0.7,0.7 -1,1 z m -13,9.1 c -0.8,0 -1.6,0.2 -2,1 -0.8,0.1 -1.6,0.2 -1.5,1.3 0,0.1 0.2,0.3 0.3,0.3 1.1,0.1 1.2,-0.7 1.3,-1.5 0.8,-0.1 1.5,-0.3 1.9,-1.1 0.4,-0.2 0.7,-0.6 1.1,-0.9 0.8,0 1.6,-0.2 2,-1 0.3,-0.3 0.7,-0.7 1,-1 0.8,0 1.6,-0.2 2,-1 0.1,-0.2 0.3,-0.3 0.4,-0.5 -0.2,0.1 -0.3,0.3 -0.5,0.4 -0.8,0 -1.6,0.2 -2,1 -0.3,0.3 -0.7,0.7 -1,1 -0.8,0 -1.6,0.2 -2,1 -0.4,0.3 -0.7,0.6 -1,1 z m -10,7.1 c 0.8,-0.1 1.6,-0.2 1.5,-1.3 0,-0.1 -0.2,-0.3 -0.3,-0.3 -1.1,-0.1 -1.2,0.7 -1.3,1.5 -0.8,0 -1.5,0.2 -2,1 -1.4,0.1 -2.4,0.8 -3,2 -0.7,0.2 -1.6,0.2 -1.5,1.3 0,0.1 0.2,0.3 0.3,0.3 1,0.1 1.2,-0.7 1.3,-1.5 1.4,0 2.8,-0.1 3,-2 0.9,-0.1 1.6,-0.3 2,-1 z m 32.8,-23.7 c -0.1,0.3 -0.3,0.6 -0.4,0.8 0.3,0.1 0.6,0.4 0.8,0.3 0.2,-0.1 0.3,-0.5 0.4,-0.8 -0.3,-0.1 -0.6,-0.2 -0.8,-0.3 z m -28.1,20.7 c -0.1,-0.3 -0.2,-0.7 -0.4,-0.7 -0.2,-0.1 -0.7,0.1 -0.8,0.3 -0.3,0.4 -0.1,0.9 0.4,0.9 0.3,0 0.5,-0.3 0.8,-0.5 z m 41.6,-28.5 c 0.1,-0.3 0.2,-0.6 0.4,-0.8 -0.3,-0.1 -0.6,-0.4 -0.8,-0.3 -0.2,0.1 -0.3,0.5 -0.4,0.8 0.2,0.1 0.5,0.2 0.8,0.3 z M 192.7,337 c -0.2,-0.3 -0.4,-0.6 -0.5,-0.7 -0.2,0 -0.7,0.2 -0.7,0.4 -0.2,0.5 0.1,0.9 0.6,0.8 0.2,0 0.4,-0.3 0.6,-0.5 z"
       id="path9"
       style="fill:#e6e3d6" /><path
       d="m 445,425.1 c -6.6,-6.4 -14.6,-10.8 -22.1,-16 -41.3,-28.8 -82.7,-57.5 -124.1,-86.2 -13.9,-9.7 -27.9,-19.3 -41.8,-29 0,-0.3 -0.1,-0.7 -0.1,-1 20.6,-14.3 41.2,-28.6 61.8,-42.9 41.6,-28.7 83.2,-57.3 124.7,-86 1.3,-0.9 2.6,-2.1 4.4,-2.1 0,88 0,176 0,264.1 -0.8,-0.3 -1.8,-0.6 -2.8,-0.9 z"
       id="path11"
       style="fill:#b6b5ac" /><path
       d="m 73,426 c 1.9,-4 6.3,-5.1 9.5,-7.5 11.6,-8.8 23.6,-17.1 35.7,-25.2 20.3,-13.7 40.1,-28.2 60.5,-41.7 12.3,-8.1 24.7,-16.2 36.2,-25.3 9.1,-7.2 19.5,-12.3 28.1,-20.2 3.1,-2.8 7.6,-4.5 11.2,-7.1 1.7,-1.3 3.2,-0.8 5,0.5 8.5,6 17,12.1 25.7,17.8 10.5,6.9 20.5,14.6 31.1,21.3 9.4,6 18.1,13.2 27.5,19.3 10.8,6.9 21.2,14.5 31.7,21.8 12.6,8.8 25.3,17.5 37.6,26.6 7.5,5.5 15.2,10.6 22.8,15.9 1.4,1 3.5,1.6 3.4,3.9 C 317,426 195,426 73,426 z"
       id="path13"
       style="fill:#e6e3d6" /><path
       d="m 448,426 c 0,-88 0,-176 0,-264.1 4.3,-4.7 9.9,-7.6 15,-11.3 12.6,-9.2 25.3,-18.1 37.9,-27.1 0.9,-0.7 1.8,-1.5 3.1,-1.5 0.1,1.7 0.2,3.3 0.2,5 0,85.1 0,170.3 0.1,255.4 0,5.8 -0.2,11.6 -1.6,17.4 -2.5,10.7 -8.9,18.1 -19.3,21.8 -11.5,4 -23.4,5.1 -35.4,4.4 z"
       id="path15"
       style="fill:#b1392f" /><path
       d="m 188.1,340.1 c -3.9,4.4 -9.2,7 -13.9,10.3 -35.7,25 -71.5,50 -107.3,74.9 -0.7,0.2 -1.3,0.4 -2,0.6 0,-1 0.1,-1.9 0.1,-2.9 38.2,-26.1 76.3,-52.2 114.5,-78.3 2.7,-1.8 4.8,-4.7 8.5,-4.8 l 0.1,0.2 z"
       id="path17"
       style="fill:#bebdb3" /><path
       d="m 257,292.9 c 0,0.3 0,0.7 0.1,1 -1,0 -2,0.1 -3,0.1 0,0 0,0 0,0 0.4,-0.4 0.9,-0.7 1.3,-1.1 0.4,0 1,0 1.6,0 z"
       id="path19"
       style="fill:#c7c5bb" /><path
       d="m 195.9,333.9 c 0.6,-1.2 1.6,-1.9 3,-2 l 0.1,0.1 c -0.2,1.9 -1.6,2 -3,2 l -0.1,-0.1 z"
       id="path21"
       style="fill:#bebdb3" /><path
       d="m 233.8,307.4 c 0.3,0.1 0.6,0.2 0.8,0.3 -0.1,0.3 -0.2,0.7 -0.4,0.8 -0.2,0.1 -0.5,-0.2 -0.8,-0.3 0.1,-0.2 0.2,-0.5 0.4,-0.8 z"
       id="path23"
       style="fill:#c4c2b8" /><path
       d="m 200.9,330.9 c 0.1,-0.8 0.3,-1.5 1.3,-1.5 0.1,0 0.3,0.2 0.3,0.3 0,1.1 -0.8,1.1 -1.5,1.3 0,0.1 -0.1,-0.1 -0.1,-0.1 z"
       id="path25"
       style="fill:#bebdb3" /><path
       d="m 205.7,328.1 c -0.2,0.2 -0.5,0.5 -0.7,0.4 -0.5,0 -0.7,-0.5 -0.4,-0.9 0.1,-0.2 0.6,-0.3 0.8,-0.3 0.1,0.1 0.1,0.6 0.3,0.8 z"
       id="path27"
       style="fill:#bebdb3" /><path
       d="m 247.3,299.6 c -0.3,-0.1 -0.6,-0.2 -0.8,-0.4 0.1,-0.3 0.2,-0.7 0.4,-0.8 0.2,-0.1 0.5,0.2 0.8,0.3 -0.2,0.3 -0.3,0.6 -0.4,0.9 z"
       id="path29"
       style="fill:#c7c5bb" /><path
       d="m 209.1,325.1 c -0.1,0.8 -0.3,1.5 -1.3,1.5 -0.1,0 -0.3,-0.2 -0.3,-0.3 0,-1.1 0.8,-1.1 1.5,-1.3 0,0 0.1,0.1 0.1,0.1 z"
       id="path31"
       style="fill:#bebdb3" /><path
       d="m 222.1,316.1 c -0.1,0.7 -0.2,1.3 -1,1.4 -0.2,0 -0.6,-0.4 -0.6,-0.6 0.1,-0.8 0.8,-0.9 1.5,-1 0,0.1 0.1,0.2 0.1,0.2 z"
       id="path33"
       style="fill:#c2c0b6" /><path
       d="m 196.1,334.1 c -0.2,0.8 -0.3,1.5 -1.3,1.5 -0.1,0 -0.3,-0.2 -0.3,-0.3 -0.1,-1.1 0.8,-1.1 1.5,-1.3 -0.1,-0.1 0.1,0.1 0.1,0.1 z"
       id="path35"
       style="fill:#bebdb3" /><path
       d="m 192.7,337 c -0.2,0.2 -0.4,0.5 -0.6,0.5 -0.6,0.1 -0.8,-0.3 -0.6,-0.8 0.1,-0.2 0.5,-0.4 0.7,-0.4 0.1,0.1 0.3,0.5 0.5,0.7 z"
       id="path37"
       style="fill:#bebdb3" /><path
       d="m 187.9,339.9 c 0.2,-0.8 0.3,-1.5 1.4,-1.4 0.1,0 0.3,0.2 0.3,0.3 0.1,1.1 -0.8,1.1 -1.5,1.3 0,0 -0.2,-0.2 -0.2,-0.2 z"
       id="path39"
       style="fill:#bebdb3" /><path
       d="m 240,304 c -0.4,0.8 -1.2,1 -2,1 0,0 -0.1,-0.1 -0.1,-0.1 0.5,-0.7 1.2,-0.9 2.1,-0.9 l 0,0 z"
       id="path41"
       style="fill:#c4c2b8" /><path
       d="m 199,331.9 c 0.4,-0.8 1.2,-1 2,-1 0,0 0.1,0.1 0.1,0.1 -0.4,0.8 -1.2,1 -2,1 0,0.1 -0.1,-0.1 -0.1,-0.1 z"
       id="path43"
       style="fill:#bebdb3" /><path
       d="m 228,312 c 0.4,-0.8 1.2,-1 2,-1 l 0.1,0.1 c -0.5,0.7 -1.2,0.9 -2.1,0.9 l 0,0 z"
       id="path45"
       style="fill:#c2c0b6" /><path
       d="m 227,313 c -0.4,0.8 -1.2,1 -2,1 l 0,0 c 0.4,-0.8 1.1,-1 2,-1 0,0 0,0 0,0 z"
       id="path47"
       style="fill:#c2c0b6" /><path
       d="m 215,321 c 0.4,-0.8 1.2,-1 2,-1 l 0.1,0.1 c -0.5,0.7 -1.2,0.9 -2.1,0.9 0,0 0,0 0,0 z"
       id="path49"
       style="fill:#bebdb3" /><path
       d="m 214,322 c -0.4,0.8 -1.2,1 -2,1 l 0,0 c 0.4,-0.9 1.1,-1 2,-1 l 0,0 z"
       id="path51"
       style="fill:#bebdb3" /><path
       d="m 211,324 c -0.4,0.8 -1.2,1 -2,1 0,0 -0.1,-0.1 -0.1,-0.1 0.5,-0.7 1.2,-0.9 2.1,-0.9 0,0 0,0 0,0 z"
       id="path53"
       style="fill:#bebdb3" /><path
       d="m 253,295 c -0.4,0.8 -1.2,1 -2,1 0,0 -0.1,-0.1 -0.1,-0.1 0.5,-0.7 1.2,-0.9 2.1,-0.9 0,0 0,0 0,0 z"
       id="path55"
       style="fill:#c7c5bb" /><path
       d="m 241,303 c 0.4,-0.8 1.2,-1 2,-1 l 0,0 c -0.4,0.8 -1.1,1 -2,1 0,0 0,0 0,0 z"
       id="path57"
       style="fill:#c4c2b8" /><path
       d="m 224,315 c -0.4,0.8 -1.2,1 -2,1 0,0 -0.1,-0.1 -0.1,-0.1 0.5,-0.7 1.2,-0.9 2.1,-0.9 0,-0.1 0,0 0,0 z"
       id="path59"
       style="fill:#c2c0b6" /><path
       d="m 214,322 c 0.3,-0.3 0.7,-0.7 1,-1 0,0 0.1,0.1 0.1,0.1 -0.4,0.3 -0.7,0.6 -1.1,0.9 0,0 0,0 0,0 z"
       id="path61"
       style="fill:#bebdb3" /><path
       d="m 225,314 c -0.3,0.3 -0.7,0.7 -1,1 0,0 -0.1,-0.1 -0.1,-0.1 0.4,-0.3 0.7,-0.6 1.1,-0.9 0,0 0,0 0,0 z"
       id="path63"
       style="fill:#c2c0b6" /><path
       d="m 237,306 c 0.3,-0.3 0.7,-0.7 1,-1 0,0 0.1,0.1 0.1,0.1 -0.4,0.3 -0.7,0.6 -1.1,0.9 l 0,0 z"
       id="path65"
       style="fill:#c4c2b8" /><path
       d="m 230,311 c 0.2,-0.1 0.3,-0.3 0.5,-0.4 -0.2,0.1 -0.3,0.3 -0.5,0.4 0,0 0,0 0,0 z"
       id="path67"
       style="fill:#c2c0b6" /><path
       d="m 243,302 c 0.2,-0.1 0.3,-0.3 0.5,-0.4 -0.2,0.1 -0.3,0.3 -0.5,0.4 0,0 0,0 0,0 z"
       id="path69"
       style="fill:#c4c2b8" /><path
       d="m 250,297 c -0.2,0.1 -0.3,0.3 -0.5,0.4 0.2,-0.1 0.3,-0.3 0.5,-0.4 0,0 0,0 0,0 z"
       id="path71"
       style="fill:#c7c5bb" /><path
       d="m 250,297 c 0.3,-0.3 0.7,-0.7 1,-1 0,0 0.1,0.1 0.1,0.1 -0.4,0.3 -0.7,0.6 -1.1,0.9 0,0 0,0 0,0 z"
       id="path73"
       style="fill:#c7c5bb" /><path
       d="m 240,304 c 0.3,-0.3 0.7,-0.7 1,-1 0,0 0.1,0.1 0.1,0.1 -0.4,0.3 -0.7,0.6 -1.1,0.9 0,0 0,0 0,0 z"
       id="path75"
       style="fill:#c4c2b8" /><path
       d="m 254,294 c -0.3,0.3 -0.7,0.7 -1,1 0,0 -0.1,-0.1 -0.1,-0.1 0.4,-0.3 0.7,-0.6 1.1,-0.9 0,0 0,0 0,0 z"
       id="path77"
       style="fill:#c7c5bb" /><path
       d="m 237,306 c -0.2,0.1 -0.3,0.3 -0.5,0.4 0.2,-0.1 0.3,-0.3 0.5,-0.4 0,0 0,0 0,0 z"
       id="path79"
       style="fill:#c4c2b8" /><path
       d="m 217,320 c 0.2,-0.1 0.3,-0.3 0.5,-0.4 -0.2,0.1 -0.3,0.3 -0.5,0.4 0,0 0,0 0,0 z"
       id="path81"
       style="fill:#bebdb3" /><path
       d="m 228,312 c -0.3,0.3 -0.7,0.7 -1,1 0,0 -0.1,-0.1 -0.1,-0.1 0.4,-0.3 0.7,-0.6 1.1,-0.9 0,0 0,0 0,0 z"
       id="path83"
       style="fill:#c2c0b6" /><path
       d="m 212,323 c -0.3,0.3 -0.7,0.7 -1,1 0,0 -0.1,-0.1 -0.1,-0.1 0.4,-0.3 0.7,-0.6 1.1,-0.9 0,0 0,0 0,0 z"
       id="path85"
       style="fill:#bebdb3" /></g></svg></g></g></svg>